<?xml version="1.0" encoding="UTF-8"?>
<svg xmlns="http://www.w3.org/2000/svg" xmlns:xlink="http://www.w3.org/1999/xlink" width="2500" height="2500" viewBox="0 0 2500 2500">
<defs>
<clipPath id="clip-0">
<path clip-rule="nonzero" d="M 180 773 L 2264 773 L 2264 1337 L 180 1337 Z M 180 773 "/>
</clipPath>
<clipPath id="clip-1">
<path clip-rule="nonzero" d="M 2250.140625 1308.460938 L 835.617188 1308.460938 C 719.863281 1308.460938 604.105469 1308.460938 488.347656 1308.460938 C 485.1875 1308.460938 482.023438 1308.511719 478.871094 1308.351562 C 454.082031 1307.128906 432.3125 1291.25 427.253906 1267.960938 C 421.746094 1242.609375 418.480469 1216.769531 414.09375 1190.261719 L 424.335938 1190.261719 C 558.894531 1190.261719 693.453125 1190.269531 828.015625 1190.25 C 869.648438 1190.238281 898.671875 1169.679688 912.257812 1130.570312 C 929.597656 1080.660156 946.800781 1030.710938 964.199219 980.820312 C 972.40625 957.300781 980.9375 933.890625 989.324219 910.429688 L 989.324219 900.949219 C 984.167969 893.351562 976.679688 892.25 968.097656 892.25 C 771.394531 892.390625 574.691406 892.359375 377.988281 892.359375 L 367.113281 892.359375 C 364.726562 877.210938 362.339844 863.21875 360.339844 849.171875 C 354.535156 808.429688 324.710938 776.839844 287.242188 774.839844 C 256.253906 773.179688 225.121094 774.109375 194.054688 774.160156 C 186.410156 774.171875 181.289062 779.058594 180.382812 785.851562 C 179.230469 794.480469 185.894531 801.25 196.085938 801.300781 C 222.945312 801.410156 249.804688 801.261719 276.660156 801.359375 C 305.105469 801.480469 327.40625 819.78125 332.101562 847.71875 C 338.859375 887.921875 344.980469 928.230469 351.359375 968.5 C 366.542969 1064.371094 382.699219 1160.089844 396.515625 1256.148438 C 404.441406 1311.25 445.621094 1336.511719 489.183594 1336.058594 C 620.304688 1334.71875 751.449219 1335.578125 882.585938 1335.578125 C 883.632812 1335.578125 884.621094 1335.539062 885.582031 1335.488281 L 2250.140625 1335.488281 C 2257.609375 1335.488281 2263.660156 1329.441406 2263.660156 1321.980469 C 2263.660156 1314.511719 2257.609375 1308.460938 2250.140625 1308.460938 Z M 2250.140625 1308.460938 "/>
</clipPath>
<clipPath id="clip-2">
<path clip-rule="nonzero" d="M 2250.140625 1308.460938 L 835.617188 1308.460938 C 719.863281 1308.460938 604.105469 1308.460938 488.347656 1308.460938 C 485.1875 1308.460938 482.023438 1308.511719 478.871094 1308.351562 C 454.082031 1307.128906 432.3125 1291.25 427.253906 1267.960938 C 421.746094 1242.609375 418.480469 1216.769531 414.09375 1190.261719 L 424.335938 1190.261719 C 558.894531 1190.261719 693.453125 1190.269531 828.015625 1190.25 C 869.648438 1190.238281 898.671875 1169.679688 912.257812 1130.570312 C 929.597656 1080.660156 946.800781 1030.710938 964.199219 980.820312 C 972.40625 957.300781 980.9375 933.890625 989.324219 910.429688 L 989.324219 900.949219 C 984.167969 893.351562 976.679688 892.25 968.097656 892.25 C 771.394531 892.390625 574.691406 892.359375 377.988281 892.359375 L 367.113281 892.359375 C 364.726562 877.210938 362.339844 863.21875 360.339844 849.171875 C 354.535156 808.429688 324.710938 776.839844 287.242188 774.839844 C 256.253906 773.179688 225.121094 774.109375 194.054688 774.160156 C 186.410156 774.171875 181.289062 779.058594 180.382812 785.851562 C 179.230469 794.480469 185.894531 801.25 196.085938 801.300781 C 222.945312 801.410156 249.804688 801.261719 276.660156 801.359375 C 305.105469 801.480469 327.40625 819.78125 332.101562 847.71875 C 338.859375 887.921875 344.980469 928.230469 351.359375 968.5 C 366.542969 1064.371094 382.699219 1160.089844 396.515625 1256.148438 C 404.441406 1311.25 445.621094 1336.511719 489.183594 1336.058594 C 620.304688 1334.71875 751.449219 1335.578125 882.585938 1335.578125 C 883.632812 1335.578125 884.621094 1335.539062 885.582031 1335.488281 L 2250.140625 1335.488281 C 2257.609375 1335.488281 2263.660156 1329.441406 2263.660156 1321.980469 C 2263.660156 1314.511719 2257.609375 1308.460938 2250.140625 1308.460938 "/>
</clipPath>
<linearGradient id="linear-pattern-0" gradientUnits="userSpaceOnUse" x1="0.119003" y1="0" x2="1.224842" y2="0" gradientTransform="matrix(1477.44, 1071.36, -1071.36, 1477.44, 147.709, 446.69)">
<stop offset="0" stop-color="rgb(95.596313%, 42.01355%, 27.137756%)" stop-opacity="1"/>
<stop offset="0.015625" stop-color="rgb(95.59021%, 41.920471%, 27.207947%)" stop-opacity="1"/>
<stop offset="0.0234375" stop-color="rgb(95.582581%, 41.822815%, 27.345276%)" stop-opacity="1"/>
<stop offset="0.03125" stop-color="rgb(95.581055%, 41.812134%, 27.481079%)" stop-opacity="1"/>
<stop offset="0.0390625" stop-color="rgb(95.578003%, 41.76178%, 27.642822%)" stop-opacity="1"/>
<stop offset="0.0429688" stop-color="rgb(95.565796%, 41.612244%, 27.867126%)" stop-opacity="1"/>
<stop offset="0.046875" stop-color="rgb(95.558167%, 41.506958%, 27.998352%)" stop-opacity="1"/>
<stop offset="0.0507812" stop-color="rgb(95.553589%, 41.455078%, 28.132629%)" stop-opacity="1"/>
<stop offset="0.0546875" stop-color="rgb(95.550537%, 41.403198%, 28.265381%)" stop-opacity="1"/>
<stop offset="0.0585937" stop-color="rgb(95.550537%, 41.392517%, 28.401184%)" stop-opacity="1"/>
<stop offset="0.0625" stop-color="rgb(95.549011%, 41.381836%, 28.535461%)" stop-opacity="1"/>
<stop offset="0.0703125" stop-color="rgb(95.542908%, 41.307068%, 28.619385%)" stop-opacity="1"/>
<stop offset="0.078125" stop-color="rgb(95.529175%, 41.130066%, 28.764343%)" stop-opacity="1"/>
<stop offset="0.0820312" stop-color="rgb(95.52002%, 41.011047%, 28.953552%)" stop-opacity="1"/>
<stop offset="0.0859375" stop-color="rgb(95.518494%, 40.989685%, 29.078674%)" stop-opacity="1"/>
<stop offset="0.0898437" stop-color="rgb(95.518494%, 40.975952%, 29.2099%)" stop-opacity="1"/>
<stop offset="0.09375" stop-color="rgb(95.516968%, 40.959167%, 29.341125%)" stop-opacity="1"/>
<stop offset="0.101563" stop-color="rgb(95.509338%, 40.859985%, 29.402161%)" stop-opacity="1"/>
<stop offset="0.109375" stop-color="rgb(95.49408%, 40.657043%, 29.53949%)" stop-opacity="1"/>
<stop offset="0.113281" stop-color="rgb(95.477295%, 40.449524%, 29.743958%)" stop-opacity="1"/>
<stop offset="0.117187" stop-color="rgb(95.469666%, 40.342712%, 29.872131%)" stop-opacity="1"/>
<stop offset="0.121094" stop-color="rgb(95.463562%, 40.274048%, 30.001831%)" stop-opacity="1"/>
<stop offset="0.125" stop-color="rgb(95.458984%, 40.203857%, 30.131531%)" stop-opacity="1"/>
<stop offset="0.128906" stop-color="rgb(95.457458%, 40.19165%, 30.265808%)" stop-opacity="1"/>
<stop offset="0.132813" stop-color="rgb(95.457458%, 40.180969%, 30.39856%)" stop-opacity="1"/>
<stop offset="0.140625" stop-color="rgb(95.452881%, 40.12146%, 30.491638%)" stop-opacity="1"/>
<stop offset="0.148438" stop-color="rgb(95.440674%, 39.961243%, 30.645752%)" stop-opacity="1"/>
<stop offset="0.15625" stop-color="rgb(95.429993%, 39.823914%, 30.818176%)" stop-opacity="1"/>
<stop offset="0.160156" stop-color="rgb(95.426941%, 39.775085%, 31.062317%)" stop-opacity="1"/>
<stop offset="0.164062" stop-color="rgb(95.425415%, 39.762878%, 31.195068%)" stop-opacity="1"/>
<stop offset="0.171875" stop-color="rgb(95.419312%, 39.675903%, 31.263733%)" stop-opacity="1"/>
<stop offset="0.179688" stop-color="rgb(95.404053%, 39.486694%, 31.393433%)" stop-opacity="1"/>
<stop offset="0.183594" stop-color="rgb(95.396423%, 39.376831%, 31.587219%)" stop-opacity="1"/>
<stop offset="0.1875" stop-color="rgb(95.394897%, 39.36615%, 31.719971%)" stop-opacity="1"/>
<stop offset="0.191406" stop-color="rgb(95.394897%, 39.355469%, 31.852722%)" stop-opacity="1"/>
<stop offset="0.195313" stop-color="rgb(95.394897%, 39.343262%, 31.983948%)" stop-opacity="1"/>
<stop offset="0.199219" stop-color="rgb(95.393372%, 39.332581%, 32.116699%)" stop-opacity="1"/>
<stop offset="0.203125" stop-color="rgb(95.393372%, 39.321899%, 32.249451%)" stop-opacity="1"/>
<stop offset="0.210937" stop-color="rgb(95.39032%, 39.277649%, 32.356262%)" stop-opacity="1"/>
<stop offset="0.21875" stop-color="rgb(95.379639%, 39.13269%, 32.519531%)" stop-opacity="1"/>
<stop offset="0.226562" stop-color="rgb(95.367432%, 38.980103%, 32.63855%)" stop-opacity="1"/>
<stop offset="0.234375" stop-color="rgb(95.362854%, 38.922119%, 32.766724%)" stop-opacity="1"/>
<stop offset="0.242188" stop-color="rgb(95.35675%, 38.842773%, 32.937622%)" stop-opacity="1"/>
<stop offset="0.246094" stop-color="rgb(95.343018%, 38.659668%, 33.164978%)" stop-opacity="1"/>
<stop offset="0.25" stop-color="rgb(95.335388%, 38.552856%, 33.287048%)" stop-opacity="1"/>
<stop offset="0.253906" stop-color="rgb(95.326233%, 38.444519%, 33.409119%)" stop-opacity="1"/>
<stop offset="0.257812" stop-color="rgb(95.318604%, 38.337708%, 33.529663%)" stop-opacity="1"/>
<stop offset="0.261719" stop-color="rgb(95.309448%, 38.230896%, 33.651733%)" stop-opacity="1"/>
<stop offset="0.265625" stop-color="rgb(95.301819%, 38.122559%, 33.772278%)" stop-opacity="1"/>
<stop offset="0.269531" stop-color="rgb(95.301819%, 38.111877%, 33.903503%)" stop-opacity="1"/>
<stop offset="0.273438" stop-color="rgb(95.300293%, 38.09967%, 34.034729%)" stop-opacity="1"/>
<stop offset="0.277344" stop-color="rgb(95.298767%, 38.072205%, 34.164429%)" stop-opacity="1"/>
<stop offset="0.28125" stop-color="rgb(95.297241%, 38.043213%, 34.294128%)" stop-opacity="1"/>
<stop offset="0.285156" stop-color="rgb(95.289612%, 37.936401%, 34.414673%)" stop-opacity="1"/>
<stop offset="0.289062" stop-color="rgb(95.280457%, 37.828064%, 34.533691%)" stop-opacity="1"/>
<stop offset="0.292969" stop-color="rgb(95.274353%, 37.750244%, 34.67865%)" stop-opacity="1"/>
<stop offset="0.296875" stop-color="rgb(95.26825%, 37.672424%, 34.823608%)" stop-opacity="1"/>
<stop offset="0.300781" stop-color="rgb(95.26825%, 37.654114%, 35.020447%)" stop-opacity="1"/>
<stop offset="0.304687" stop-color="rgb(95.266724%, 37.637329%, 35.215759%)" stop-opacity="1"/>
<stop offset="0.308594" stop-color="rgb(95.263672%, 37.574768%, 35.374451%)" stop-opacity="1"/>
<stop offset="0.3125" stop-color="rgb(95.259094%, 37.512207%, 35.531616%)" stop-opacity="1"/>
<stop offset="0.316406" stop-color="rgb(95.249939%, 37.40387%, 35.649109%)" stop-opacity="1"/>
<stop offset="0.320312" stop-color="rgb(95.24231%, 37.295532%, 35.768127%)" stop-opacity="1"/>
<stop offset="0.328125" stop-color="rgb(95.239258%, 37.254333%, 35.850525%)" stop-opacity="1"/>
<stop offset="0.335938" stop-color="rgb(95.236206%, 37.207031%, 36.000061%)" stop-opacity="1"/>
<stop offset="0.34375" stop-color="rgb(95.228577%, 37.110901%, 36.172485%)" stop-opacity="1"/>
<stop offset="0.347656" stop-color="rgb(95.213318%, 36.911011%, 36.39679%)" stop-opacity="1"/>
<stop offset="0.351562" stop-color="rgb(95.205688%, 36.801147%, 36.512756%)" stop-opacity="1"/>
<stop offset="0.355469" stop-color="rgb(95.204163%, 36.78894%, 36.642456%)" stop-opacity="1"/>
<stop offset="0.359375" stop-color="rgb(95.204163%, 36.775208%, 36.772156%)" stop-opacity="1"/>
<stop offset="0.363281" stop-color="rgb(95.202637%, 36.750793%, 36.889648%)" stop-opacity="1"/>
<stop offset="0.367187" stop-color="rgb(95.201111%, 36.724854%, 37.008667%)" stop-opacity="1"/>
<stop offset="0.375" stop-color="rgb(95.191956%, 36.621094%, 37.060547%)" stop-opacity="1"/>
<stop offset="0.382812" stop-color="rgb(95.176697%, 36.410522%, 37.200928%)" stop-opacity="1"/>
<stop offset="0.386719" stop-color="rgb(95.159912%, 36.187744%, 37.471008%)" stop-opacity="1"/>
<stop offset="0.390625" stop-color="rgb(95.150757%, 36.073303%, 37.649536%)" stop-opacity="1"/>
<stop offset="0.394531" stop-color="rgb(95.146179%, 36.006165%, 37.805176%)" stop-opacity="1"/>
<stop offset="0.398437" stop-color="rgb(95.141602%, 35.939026%, 37.95929%)" stop-opacity="1"/>
<stop offset="0.402344" stop-color="rgb(95.140076%, 35.926819%, 38.088989%)" stop-opacity="1"/>
<stop offset="0.40625" stop-color="rgb(95.140076%, 35.914612%, 38.217163%)" stop-opacity="1"/>
<stop offset="0.410156" stop-color="rgb(95.140076%, 35.897827%, 38.386536%)" stop-opacity="1"/>
<stop offset="0.414062" stop-color="rgb(95.13855%, 35.882568%, 38.555908%)" stop-opacity="1"/>
<stop offset="0.417969" stop-color="rgb(95.13855%, 35.864258%, 38.749695%)" stop-opacity="1"/>
<stop offset="0.421875" stop-color="rgb(95.137024%, 35.845947%, 38.941956%)" stop-opacity="1"/>
<stop offset="0.429688" stop-color="rgb(95.13092%, 35.760498%, 39.021301%)" stop-opacity="1"/>
<stop offset="0.4375" stop-color="rgb(95.115662%, 35.569763%, 39.146423%)" stop-opacity="1"/>
<stop offset="0.441406" stop-color="rgb(95.106506%, 35.449219%, 39.318848%)" stop-opacity="1"/>
<stop offset="0.445312" stop-color="rgb(95.106506%, 35.432434%, 39.44397%)" stop-opacity="1"/>
<stop offset="0.449219" stop-color="rgb(95.10498%, 35.409546%, 39.570618%)" stop-opacity="1"/>
<stop offset="0.453125" stop-color="rgb(95.103455%, 35.383606%, 39.697266%)" stop-opacity="1"/>
<stop offset="0.457031" stop-color="rgb(95.094299%, 35.273743%, 39.808655%)" stop-opacity="1"/>
<stop offset="0.460938" stop-color="rgb(95.08667%, 35.162354%, 39.918518%)" stop-opacity="1"/>
<stop offset="0.464844" stop-color="rgb(95.080566%, 35.07843%, 40.052795%)" stop-opacity="1"/>
<stop offset="0.46875" stop-color="rgb(95.074463%, 34.994507%, 40.185547%)" stop-opacity="1"/>
<stop offset="0.472656" stop-color="rgb(95.072937%, 34.976196%, 40.377808%)" stop-opacity="1"/>
<stop offset="0.476563" stop-color="rgb(95.072937%, 34.95636%, 40.568542%)" stop-opacity="1"/>
<stop offset="0.480469" stop-color="rgb(95.068359%, 34.896851%, 40.724182%)" stop-opacity="1"/>
<stop offset="0.484375" stop-color="rgb(95.063782%, 34.835815%, 40.879822%)" stop-opacity="1"/>
<stop offset="0.488281" stop-color="rgb(95.056152%, 34.727478%, 40.988159%)" stop-opacity="1"/>
<stop offset="0.492188" stop-color="rgb(95.046997%, 34.616089%, 41.096497%)" stop-opacity="1"/>
<stop offset="0.496094" stop-color="rgb(95.043945%, 34.565735%, 41.217041%)" stop-opacity="1"/>
<stop offset="0.5" stop-color="rgb(95.040894%, 34.512329%, 41.337585%)" stop-opacity="1"/>
<stop offset="0.503906" stop-color="rgb(95.039368%, 34.500122%, 41.464233%)" stop-opacity="1"/>
<stop offset="0.507812" stop-color="rgb(95.039368%, 34.487915%, 41.592407%)" stop-opacity="1"/>
<stop offset="0.511719" stop-color="rgb(95.033264%, 34.399414%, 41.705322%)" stop-opacity="1"/>
<stop offset="0.515625" stop-color="rgb(95.025635%, 34.310913%, 41.816711%)" stop-opacity="1"/>
<stop offset="0.519531" stop-color="rgb(95.018005%, 34.197998%, 41.925049%)" stop-opacity="1"/>
<stop offset="0.523437" stop-color="rgb(95.00885%, 34.086609%, 42.03186%)" stop-opacity="1"/>
<stop offset="0.527344" stop-color="rgb(95.00885%, 34.062195%, 42.216492%)" stop-opacity="1"/>
<stop offset="0.53125" stop-color="rgb(95.007324%, 34.037781%, 42.401123%)" stop-opacity="1"/>
<stop offset="0.535156" stop-color="rgb(94.998169%, 34.008789%, 42.584229%)" stop-opacity="1"/>
<stop offset="0.539062" stop-color="rgb(94.987488%, 33.981323%, 42.765808%)" stop-opacity="1"/>
<stop offset="0.542969" stop-color="rgb(94.891357%, 33.869934%, 42.880249%)" stop-opacity="1"/>
<stop offset="0.546875" stop-color="rgb(94.796753%, 33.758545%, 42.993164%)" stop-opacity="1"/>
<stop offset="0.550781" stop-color="rgb(94.703674%, 33.674622%, 43.112183%)" stop-opacity="1"/>
<stop offset="0.554688" stop-color="rgb(94.60907%, 33.589172%, 43.229675%)" stop-opacity="1"/>
<stop offset="0.558594" stop-color="rgb(94.522095%, 33.576965%, 43.362427%)" stop-opacity="1"/>
<stop offset="0.5625" stop-color="rgb(94.433594%, 33.566284%, 43.495178%)" stop-opacity="1"/>
<stop offset="0.566406" stop-color="rgb(94.343567%, 33.509827%, 43.64624%)" stop-opacity="1"/>
<stop offset="0.570312" stop-color="rgb(94.252014%, 33.453369%, 43.795776%)" stop-opacity="1"/>
<stop offset="0.574219" stop-color="rgb(94.15741%, 33.335876%, 43.969727%)" stop-opacity="1"/>
<stop offset="0.578125" stop-color="rgb(94.062805%, 33.21991%, 44.143677%)" stop-opacity="1"/>
<stop offset="0.582031" stop-color="rgb(93.966675%, 33.105469%, 44.27948%)" stop-opacity="1"/>
<stop offset="0.585938" stop-color="rgb(93.87207%, 32.992554%, 44.415283%)" stop-opacity="1"/>
<stop offset="0.589844" stop-color="rgb(93.77594%, 32.88269%, 44.525146%)" stop-opacity="1"/>
<stop offset="0.59375" stop-color="rgb(93.681335%, 32.771301%, 44.633484%)" stop-opacity="1"/>
<stop offset="0.597656" stop-color="rgb(93.656921%, 32.73468%, 44.754028%)" stop-opacity="1"/>
<stop offset="0.601562" stop-color="rgb(93.632507%, 32.696533%, 44.874573%)" stop-opacity="1"/>
<stop offset="0.605469" stop-color="rgb(93.630981%, 32.684326%, 44.999695%)" stop-opacity="1"/>
<stop offset="0.609375" stop-color="rgb(93.630981%, 32.672119%, 45.124817%)" stop-opacity="1"/>
<stop offset="0.613281" stop-color="rgb(93.545532%, 32.571411%, 45.23468%)" stop-opacity="1"/>
<stop offset="0.617187" stop-color="rgb(93.458557%, 32.469177%, 45.343018%)" stop-opacity="1"/>
<stop offset="0.621094" stop-color="rgb(93.363953%, 32.365417%, 45.452881%)" stop-opacity="1"/>
<stop offset="0.625" stop-color="rgb(93.269348%, 32.261658%, 45.559692%)" stop-opacity="1"/>
<stop offset="0.628906" stop-color="rgb(93.182373%, 32.250977%, 45.690918%)" stop-opacity="1"/>
<stop offset="0.632812" stop-color="rgb(93.093872%, 32.240295%, 45.820618%)" stop-opacity="1"/>
<stop offset="0.636719" stop-color="rgb(93.006897%, 32.2052%, 45.960999%)" stop-opacity="1"/>
<stop offset="0.640625" stop-color="rgb(92.91687%, 32.168579%, 46.098328%)" stop-opacity="1"/>
<stop offset="0.644531" stop-color="rgb(92.822266%, 32.051086%, 46.266174%)" stop-opacity="1"/>
<stop offset="0.648438" stop-color="rgb(92.727661%, 31.93512%, 46.434021%)" stop-opacity="1"/>
<stop offset="0.652344" stop-color="rgb(92.634583%, 31.860352%, 46.585083%)" stop-opacity="1"/>
<stop offset="0.65625" stop-color="rgb(92.54303%, 31.787109%, 46.737671%)" stop-opacity="1"/>
<stop offset="0.660156" stop-color="rgb(92.456055%, 31.776428%, 46.865845%)" stop-opacity="1"/>
<stop offset="0.664062" stop-color="rgb(92.367554%, 31.765747%, 46.994019%)" stop-opacity="1"/>
<stop offset="0.667969" stop-color="rgb(92.280579%, 31.750488%, 47.158813%)" stop-opacity="1"/>
<stop offset="0.671875" stop-color="rgb(92.192078%, 31.736755%, 47.322083%)" stop-opacity="1"/>
<stop offset="0.675781" stop-color="rgb(92.105103%, 31.718445%, 47.512817%)" stop-opacity="1"/>
<stop offset="0.679688" stop-color="rgb(92.016602%, 31.70166%, 47.702026%)" stop-opacity="1"/>
<stop offset="0.683594" stop-color="rgb(91.923523%, 31.614685%, 47.874451%)" stop-opacity="1"/>
<stop offset="0.6875" stop-color="rgb(91.830444%, 31.524658%, 48.045349%)" stop-opacity="1"/>
<stop offset="0.691406" stop-color="rgb(91.73584%, 31.408691%, 48.208618%)" stop-opacity="1"/>
<stop offset="0.695312" stop-color="rgb(91.641235%, 31.292725%, 48.370361%)" stop-opacity="1"/>
<stop offset="0.699219" stop-color="rgb(91.479492%, 31.243896%, 48.458862%)" stop-opacity="1"/>
<stop offset="0.703125" stop-color="rgb(91.317749%, 31.195068%, 48.547363%)" stop-opacity="1"/>
<stop offset="0.707031" stop-color="rgb(91.15448%, 31.156921%, 48.626709%)" stop-opacity="1"/>
<stop offset="0.710937" stop-color="rgb(90.991211%, 31.117249%, 48.706055%)" stop-opacity="1"/>
<stop offset="0.714844" stop-color="rgb(90.989685%, 31.105042%, 48.828125%)" stop-opacity="1"/>
<stop offset="0.71875" stop-color="rgb(90.989685%, 31.091309%, 48.950195%)" stop-opacity="1"/>
<stop offset="0.722656" stop-color="rgb(90.969849%, 31.056213%, 49.081421%)" stop-opacity="1"/>
<stop offset="0.726562" stop-color="rgb(90.950012%, 31.021118%, 49.209595%)" stop-opacity="1"/>
<stop offset="0.730469" stop-color="rgb(90.855408%, 30.906677%, 49.369812%)" stop-opacity="1"/>
<stop offset="0.734375" stop-color="rgb(90.760803%, 30.79071%, 49.530029%)" stop-opacity="1"/>
<stop offset="0.738281" stop-color="rgb(90.66925%, 30.715942%, 49.676514%)" stop-opacity="1"/>
<stop offset="0.742187" stop-color="rgb(90.577698%, 30.639648%, 49.822998%)" stop-opacity="1"/>
<stop offset="0.746094" stop-color="rgb(90.490723%, 30.630493%, 49.94812%)" stop-opacity="1"/>
<stop offset="0.75" stop-color="rgb(90.403748%, 30.619812%, 50.074768%)" stop-opacity="1"/>
<stop offset="0.753906" stop-color="rgb(90.312195%, 30.554199%, 50.218201%)" stop-opacity="1"/>
<stop offset="0.757812" stop-color="rgb(90.222168%, 30.487061%, 50.360107%)" stop-opacity="1"/>
<stop offset="0.761719" stop-color="rgb(90.127563%, 30.37262%, 50.517273%)" stop-opacity="1"/>
<stop offset="0.765625" stop-color="rgb(90.034485%, 30.256653%, 50.672913%)" stop-opacity="1"/>
<stop offset="0.769531" stop-color="rgb(90.005493%, 30.213928%, 50.804138%)" stop-opacity="1"/>
<stop offset="0.773438" stop-color="rgb(89.976501%, 30.169678%, 50.935364%)" stop-opacity="1"/>
<stop offset="0.777344" stop-color="rgb(89.974976%, 30.157471%, 51.057434%)" stop-opacity="1"/>
<stop offset="0.78125" stop-color="rgb(89.974976%, 30.143738%, 51.177979%)" stop-opacity="1"/>
<stop offset="0.785156" stop-color="rgb(89.968872%, 30.041504%, 51.324463%)" stop-opacity="1"/>
<stop offset="0.789062" stop-color="rgb(89.961243%, 29.936218%, 51.469421%)" stop-opacity="1"/>
<stop offset="0.792969" stop-color="rgb(89.955139%, 29.820251%, 51.615906%)" stop-opacity="1"/>
<stop offset="0.796875" stop-color="rgb(89.94751%, 29.705811%, 51.76239%)" stop-opacity="1"/>
<stop offset="0.8125" stop-color="rgb(89.94751%, 29.705811%, 51.76239%)" stop-opacity="1"/>
<stop offset="0.875" stop-color="rgb(89.94751%, 29.705811%, 51.76239%)" stop-opacity="1"/>
<stop offset="1" stop-color="rgb(89.94751%, 29.705811%, 51.76239%)" stop-opacity="1"/>
</linearGradient>
</defs>
<rect x="-250" y="-250" width="3000" height="3000" fill="rgb(5.851746%, 6.886292%, 12.64801%)" fill-opacity="1"/>
<path fill-rule="nonzero" fill="rgb(95.735168%, 43.780518%, 24.717712%)" fill-opacity="1" d="M 707.457031 1462.269531 C 707.210938 1419.699219 742.019531 1384.78125 784.644531 1384.828125 C 826.871094 1384.890625 861.339844 1419.46875 861.441406 1461.871094 C 861.542969 1504.328125 827.417969 1538.898438 785.050781 1539.238281 C 742.4375 1539.589844 707.703125 1505.128906 707.457031 1462.269531 "/>
<path fill-rule="nonzero" fill="rgb(95.735168%, 43.780518%, 24.717712%)" fill-opacity="1" d="M 575.761719 1461.761719 C 575.933594 1504.488281 541.332031 1539.28125 498.695312 1539.238281 C 456.367188 1539.210938 421.96875 1504.800781 421.835938 1462.371094 C 421.703125 1419.570312 456.300781 1384.769531 498.890625 1384.851562 C 541.261719 1384.929688 575.585938 1419.269531 575.761719 1461.761719 "/>
<g clip-path="url(#clip-0)">
<g clip-path="url(#clip-1)">
<g clip-path="url(#clip-2)">
<path fill-rule="nonzero" fill="url(#linear-pattern-0)" d="M 897.570312 -217.433594 L -88.492188 1142.375 L 1545.320312 2327.125 L 2531.378906 967.316406 Z M 897.570312 -217.433594 "/>
</g>
</g>
</g>
<path fill-rule="nonzero" fill="rgb(95.735168%, 43.780518%, 24.717712%)" fill-opacity="1" d="M 1030.839844 1469.421875 L 1071.511719 1481.710938 C 1068.78125 1493.121094 1064.480469 1502.648438 1058.601562 1510.300781 C 1052.730469 1517.949219 1045.441406 1523.71875 1036.730469 1527.609375 C 1028.019531 1531.511719 1016.929688 1533.449219 1003.480469 1533.449219 C 987.152344 1533.449219 973.816406 1531.078125 963.46875 1526.339844 C 953.117188 1521.589844 944.1875 1513.25 936.675781 1501.300781 C 929.160156 1489.359375 925.402344 1474.070312 925.402344 1455.429688 C 925.402344 1430.578125 932.011719 1411.488281 945.230469 1398.140625 C 958.449219 1384.800781 977.144531 1378.121094 1001.328125 1378.121094 C 1020.25 1378.121094 1035.121094 1381.949219 1045.949219 1389.601562 C 1056.769531 1397.25 1064.820312 1409 1070.078125 1424.839844 L 1029.089844 1433.960938 C 1027.660156 1429.390625 1026.160156 1426.039062 1024.589844 1423.921875 C 1021.988281 1420.371094 1018.808594 1417.640625 1015.058594 1415.730469 C 1011.300781 1413.808594 1007.101562 1412.859375 1002.449219 1412.859375 C 991.933594 1412.859375 983.871094 1417.089844 978.273438 1425.550781 C 974.035156 1431.828125 971.921875 1441.679688 971.921875 1455.121094 C 971.921875 1471.769531 974.445312 1483.179688 979.503906 1489.359375 C 984.558594 1495.53125 991.660156 1498.621094 1000.808594 1498.621094 C 1009.691406 1498.621094 1016.398438 1496.121094 1020.949219 1491.140625 C 1025.488281 1486.148438 1028.789062 1478.910156 1030.839844 1469.421875 "/>
<path fill-rule="nonzero" fill="rgb(95.735168%, 43.780518%, 24.717712%)" fill-opacity="1" d="M 1134.628906 1456.101562 C 1134.628906 1471.261719 1137.449219 1482.160156 1143.078125 1488.78125 C 1148.71875 1495.410156 1156.378906 1498.71875 1166.078125 1498.71875 C 1176.058594 1498.71875 1183.769531 1495.480469 1189.238281 1488.988281 C 1194.699219 1482.5 1197.441406 1470.851562 1197.441406 1454.050781 C 1197.441406 1439.910156 1194.578125 1429.578125 1188.878906 1423.050781 C 1183.179688 1416.53125 1175.441406 1413.269531 1165.671875 1413.269531 C 1156.308594 1413.269531 1148.800781 1416.578125 1143.128906 1423.210938 C 1137.460938 1429.828125 1134.628906 1440.789062 1134.628906 1456.101562 Z M 1088.210938 1455.890625 C 1088.210938 1431.371094 1095.039062 1412.28125 1108.710938 1398.621094 C 1122.371094 1384.949219 1141.390625 1378.121094 1165.78125 1378.121094 C 1190.78125 1378.121094 1210.039062 1384.828125 1223.558594 1398.261719 C 1237.089844 1411.679688 1243.851562 1430.480469 1243.851562 1454.660156 C 1243.851562 1472.21875 1240.898438 1486.609375 1234.988281 1497.851562 C 1229.078125 1509.078125 1220.539062 1517.828125 1209.371094 1524.078125 C 1198.199219 1530.328125 1184.289062 1533.449219 1167.621094 1533.449219 C 1150.679688 1533.449219 1136.660156 1530.761719 1125.558594 1525.359375 C 1114.460938 1519.960938 1105.460938 1511.421875 1098.558594 1499.738281 C 1091.660156 1488.058594 1088.210938 1473.449219 1088.210938 1455.890625 "/>
<path fill-rule="nonzero" fill="rgb(95.735168%, 43.780518%, 24.717712%)" fill-opacity="1" d="M 1268.339844 1380.679688 L 1329.378906 1380.679688 L 1352.921875 1472.078125 L 1376.289062 1380.679688 L 1437.300781 1380.679688 L 1437.300781 1530.890625 L 1399.28125 1530.890625 L 1399.28125 1416.339844 L 1369.988281 1530.890625 L 1335.589844 1530.890625 L 1306.351562 1416.339844 L 1306.351562 1530.890625 L 1268.339844 1530.890625 L 1268.339844 1380.679688 "/>
<path fill-rule="nonzero" fill="rgb(95.735168%, 43.780518%, 24.717712%)" fill-opacity="1" d="M 1466.390625 1380.679688 L 1527.429688 1380.679688 L 1550.980469 1472.078125 L 1574.351562 1380.679688 L 1635.351562 1380.679688 L 1635.351562 1530.890625 L 1597.339844 1530.890625 L 1597.339844 1416.339844 L 1568.050781 1530.890625 L 1533.640625 1530.890625 L 1504.410156 1416.339844 L 1504.410156 1530.890625 L 1466.390625 1530.890625 L 1466.390625 1380.679688 "/>
<path fill-rule="nonzero" fill="rgb(95.735168%, 43.780518%, 24.717712%)" fill-opacity="1" d="M 1664.859375 1380.679688 L 1789.25 1380.679688 L 1789.25 1412.75 L 1711.378906 1412.75 L 1711.378906 1436.628906 L 1783.609375 1436.628906 L 1783.609375 1467.261719 L 1711.378906 1467.261719 L 1711.378906 1496.878906 L 1791.5 1496.878906 L 1791.5 1530.890625 L 1664.859375 1530.890625 L 1664.859375 1380.679688 "/>
<path fill-rule="nonzero" fill="rgb(95.735168%, 43.780518%, 24.717712%)" fill-opacity="1" d="M 1863.738281 1441.550781 L 1883.308594 1441.550781 C 1885.421875 1441.550781 1889.519531 1440.859375 1895.601562 1439.5 C 1898.671875 1438.878906 1901.179688 1437.308594 1903.128906 1434.78125 C 1905.078125 1432.261719 1906.050781 1429.351562 1906.050781 1426.070312 C 1906.050781 1421.230469 1904.511719 1417.5 1901.441406 1414.910156 C 1898.371094 1412.308594 1892.589844 1411.011719 1884.128906 1411.011719 L 1863.738281 1411.011719 Z M 1817.121094 1530.890625 L 1817.121094 1380.679688 L 1894.46875 1380.679688 C 1908.820312 1380.679688 1919.78125 1381.910156 1927.359375 1384.371094 C 1934.949219 1386.828125 1941.058594 1391.390625 1945.699219 1398.050781 C 1950.351562 1404.710938 1952.671875 1412.820312 1952.671875 1422.390625 C 1952.671875 1430.71875 1950.890625 1437.910156 1947.339844 1443.949219 C 1943.789062 1450 1938.898438 1454.898438 1932.679688 1458.660156 C 1928.71875 1461.050781 1923.28125 1463.03125 1916.378906 1464.601562 C 1921.910156 1466.449219 1925.929688 1468.289062 1928.460938 1470.140625 C 1930.171875 1471.371094 1932.640625 1474 1935.890625 1478.039062 C 1939.128906 1482.070312 1941.289062 1485.179688 1942.390625 1487.371094 L 1964.859375 1530.890625 L 1912.421875 1530.890625 L 1887.609375 1484.988281 C 1884.46875 1479.050781 1881.671875 1475.191406 1879.210938 1473.410156 C 1875.859375 1471.089844 1872.070312 1469.929688 1867.828125 1469.929688 L 1863.738281 1469.929688 L 1863.738281 1530.890625 L 1817.121094 1530.890625 "/>
<path fill-rule="nonzero" fill="rgb(95.735168%, 43.780518%, 24.717712%)" fill-opacity="1" d="M 2075.929688 1469.421875 L 2116.609375 1481.710938 C 2113.878906 1493.121094 2109.570312 1502.648438 2103.699219 1510.300781 C 2097.820312 1517.949219 2090.53125 1523.71875 2081.820312 1527.609375 C 2073.109375 1531.511719 2062.03125 1533.449219 2048.570312 1533.449219 C 2032.25 1533.449219 2018.910156 1531.078125 2008.558594 1526.339844 C 1998.21875 1521.589844 1989.28125 1513.25 1981.769531 1501.300781 C 1974.25 1489.359375 1970.5 1474.070312 1970.5 1455.429688 C 1970.5 1430.578125 1977.109375 1411.488281 1990.320312 1398.140625 C 2003.539062 1384.800781 2022.238281 1378.121094 2046.421875 1378.121094 C 2065.339844 1378.121094 2080.21875 1381.949219 2091.039062 1389.601562 C 2101.871094 1397.25 2109.910156 1409 2115.171875 1424.839844 L 2074.191406 1433.960938 C 2072.75 1429.390625 2071.25 1426.039062 2069.679688 1423.921875 C 2067.078125 1420.371094 2063.910156 1417.640625 2060.148438 1415.730469 C 2056.398438 1413.808594 2052.191406 1412.859375 2047.550781 1412.859375 C 2037.03125 1412.859375 2028.96875 1417.089844 2023.371094 1425.550781 C 2019.128906 1431.828125 2017.019531 1441.679688 2017.019531 1455.121094 C 2017.019531 1471.769531 2019.539062 1483.179688 2024.601562 1489.359375 C 2029.648438 1495.53125 2036.761719 1498.621094 2045.910156 1498.621094 C 2054.789062 1498.621094 2061.5 1496.121094 2066.039062 1491.140625 C 2070.578125 1486.148438 2073.878906 1478.910156 2075.929688 1469.421875 "/>
<path fill-rule="nonzero" fill="rgb(95.735168%, 43.780518%, 24.717712%)" fill-opacity="1" d="M 2139.050781 1380.679688 L 2263.429688 1380.679688 L 2263.429688 1412.75 L 2185.558594 1412.75 L 2185.558594 1436.628906 L 2257.800781 1436.628906 L 2257.800781 1467.261719 L 2185.558594 1467.261719 L 2185.558594 1496.878906 L 2265.691406 1496.878906 L 2265.691406 1530.890625 L 2139.050781 1530.890625 L 2139.050781 1380.679688 "/>
<path fill-rule="nonzero" fill="rgb(95.614624%, 95.310974%, 94.711304%)" fill-opacity="1" d="M 755.988281 1473.328125 C 748.851562 1462.71875 743.621094 1446.558594 756.152344 1434.039062 C 756.199219 1433.988281 756.25 1433.941406 756.300781 1433.898438 C 769.523438 1420.828125 785.667969 1426.328125 795.738281 1433.578125 Z M 744.496094 1422.089844 C 722.433594 1444.160156 722.433594 1479.929688 744.496094 1502 C 766.5625 1524.058594 802.335938 1524.058594 824.398438 1502 L 807.222656 1484.820312 C 793.988281 1497.871094 776.0625 1490.601562 764.574219 1481.921875 L 824.398438 1422.089844 C 802.335938 1400.03125 766.5625 1400.03125 744.496094 1422.089844 "/>
<path fill-rule="nonzero" fill="rgb(95.614624%, 95.310974%, 94.711304%)" fill-opacity="1" d="M 444.652344 1699.570312 L 444.652344 1674.75 L 422.078125 1640.988281 L 431.507812 1640.988281 L 443.054688 1658.648438 C 445.1875 1661.949219 447.171875 1665.261719 449.011719 1668.558594 C 450.765625 1665.5 452.898438 1662.050781 455.402344 1658.210938 L 466.753906 1640.988281 L 475.78125 1640.988281 L 452.40625 1674.75 L 452.40625 1699.570312 L 444.652344 1699.570312 "/>
<path fill-rule="nonzero" fill="rgb(95.614624%, 95.310974%, 94.711304%)" fill-opacity="1" d="M 553.839844 1671.160156 C 553.839844 1678.21875 555.738281 1683.78125 559.535156 1687.839844 C 563.332031 1691.898438 568.09375 1693.929688 573.820312 1693.929688 C 579.652344 1693.929688 584.457031 1691.878906 588.226562 1687.78125 C 591.996094 1683.679688 593.878906 1677.859375 593.878906 1670.320312 C 593.878906 1665.550781 593.074219 1661.390625 591.464844 1657.828125 C 589.851562 1654.269531 587.492188 1651.519531 584.390625 1649.558594 C 581.285156 1647.601562 577.804688 1646.621094 573.941406 1646.621094 C 568.453125 1646.621094 563.730469 1648.511719 559.773438 1652.28125 C 555.816406 1656.050781 553.839844 1662.339844 553.839844 1671.160156 Z M 545.847656 1671.039062 C 545.847656 1661.308594 548.460938 1653.699219 553.679688 1648.199219 C 558.902344 1642.699219 565.640625 1639.949219 573.898438 1639.949219 C 579.308594 1639.949219 584.183594 1641.238281 588.523438 1643.828125 C 592.867188 1646.410156 596.179688 1650.011719 598.457031 1654.628906 C 600.734375 1659.261719 601.871094 1664.5 601.871094 1670.359375 C 601.871094 1676.300781 600.675781 1681.609375 598.277344 1686.300781 C 595.878906 1690.988281 592.480469 1694.539062 588.085938 1696.949219 C 583.691406 1699.359375 578.949219 1700.570312 573.859375 1700.570312 C 568.347656 1700.570312 563.417969 1699.238281 559.074219 1696.570312 C 554.730469 1693.910156 551.441406 1690.269531 549.203125 1685.660156 C 546.96875 1681.050781 545.847656 1676.179688 545.847656 1671.039062 "/>
<path fill-rule="nonzero" fill="rgb(95.614624%, 95.310974%, 94.711304%)" fill-opacity="1" d="M 715.773438 1640.988281 L 723.523438 1640.988281 L 723.523438 1674.828125 C 723.523438 1680.71875 722.859375 1685.398438 721.527344 1688.859375 C 720.195312 1692.320312 717.792969 1695.140625 714.316406 1697.308594 C 710.839844 1699.480469 706.277344 1700.570312 700.628906 1700.570312 C 695.140625 1700.570312 690.652344 1699.621094 687.160156 1697.730469 C 683.671875 1695.839844 681.179688 1693.101562 679.6875 1689.519531 C 678.195312 1685.941406 677.453125 1681.039062 677.453125 1674.828125 L 677.453125 1640.988281 L 685.203125 1640.988281 L 685.203125 1674.789062 C 685.203125 1679.878906 685.675781 1683.628906 686.621094 1686.039062 C 687.566406 1688.449219 689.191406 1690.308594 691.496094 1691.621094 C 693.800781 1692.921875 696.617188 1693.578125 699.949219 1693.578125 C 705.648438 1693.578125 709.714844 1692.28125 712.136719 1689.699219 C 714.5625 1687.121094 715.773438 1682.148438 715.773438 1674.789062 L 715.773438 1640.988281 "/>
<path fill-rule="nonzero" fill="rgb(95.614624%, 95.310974%, 94.711304%)" fill-opacity="1" d="M 809.773438 1666.839844 L 826.4375 1666.839844 C 829.980469 1666.839844 832.753906 1666.480469 834.75 1665.738281 C 836.746094 1665.011719 838.265625 1663.839844 839.304688 1662.230469 C 840.34375 1660.621094 840.863281 1658.859375 840.863281 1656.96875 C 840.863281 1654.199219 839.859375 1651.921875 837.847656 1650.140625 C 835.835938 1648.351562 832.660156 1647.460938 828.316406 1647.460938 L 809.773438 1647.460938 Z M 802.023438 1699.570312 L 802.023438 1640.988281 L 827.996094 1640.988281 C 833.21875 1640.988281 837.1875 1641.511719 839.90625 1642.570312 C 842.621094 1643.621094 844.792969 1645.480469 846.417969 1648.140625 C 848.042969 1650.808594 848.855469 1653.75 848.855469 1656.96875 C 848.855469 1661.128906 847.511719 1664.628906 844.820312 1667.480469 C 842.128906 1670.328125 837.972656 1672.140625 832.351562 1672.921875 C 834.402344 1673.898438 835.964844 1674.871094 837.027344 1675.828125 C 839.292969 1677.910156 841.4375 1680.511719 843.460938 1683.628906 L 853.652344 1699.570312 L 843.902344 1699.570312 L 836.148438 1687.378906 C 833.886719 1683.871094 832.019531 1681.171875 830.554688 1679.308594 C 829.089844 1677.449219 827.777344 1676.140625 826.617188 1675.390625 C 825.460938 1674.648438 824.28125 1674.128906 823.082031 1673.828125 C 822.203125 1673.648438 820.765625 1673.558594 818.765625 1673.558594 L 809.773438 1673.558594 L 809.773438 1699.570312 L 802.023438 1699.570312 "/>
<path fill-rule="nonzero" fill="rgb(95.614624%, 95.310974%, 94.711304%)" fill-opacity="1" d="M 1012.039062 1680.75 L 1019.359375 1680.109375 C 1019.699219 1683.039062 1020.511719 1685.441406 1021.769531 1687.320312 C 1023.039062 1689.199219 1025 1690.71875 1027.671875 1691.878906 C 1030.328125 1693.039062 1033.328125 1693.621094 1036.660156 1693.621094 C 1039.621094 1693.621094 1042.230469 1693.179688 1044.488281 1692.300781 C 1046.761719 1691.421875 1048.441406 1690.210938 1049.550781 1688.679688 C 1050.648438 1687.148438 1051.199219 1685.480469 1051.199219 1683.671875 C 1051.199219 1681.828125 1050.671875 1680.21875 1049.609375 1678.851562 C 1048.539062 1677.480469 1046.78125 1676.328125 1044.328125 1675.390625 C 1042.761719 1674.78125 1039.28125 1673.828125 1033.898438 1672.539062 C 1028.519531 1671.25 1024.75 1670.03125 1022.589844 1668.878906 C 1019.800781 1667.421875 1017.710938 1665.601562 1016.339844 1663.429688 C 1014.96875 1661.25 1014.28125 1658.820312 1014.28125 1656.128906 C 1014.28125 1653.179688 1015.121094 1650.410156 1016.800781 1647.839844 C 1018.480469 1645.269531 1020.929688 1643.320312 1024.148438 1641.988281 C 1027.371094 1640.660156 1030.960938 1639.988281 1034.898438 1639.988281 C 1039.238281 1639.988281 1043.070312 1640.691406 1046.390625 1642.089844 C 1049.710938 1643.488281 1052.261719 1645.539062 1054.039062 1648.261719 C 1055.828125 1650.980469 1056.789062 1654.050781 1056.921875 1657.488281 L 1049.488281 1658.050781 C 1049.089844 1654.351562 1047.738281 1651.550781 1045.429688 1649.660156 C 1043.128906 1647.769531 1039.71875 1646.820312 1035.21875 1646.820312 C 1030.53125 1646.820312 1027.109375 1647.679688 1024.96875 1649.398438 C 1022.828125 1651.121094 1021.75 1653.191406 1021.75 1655.609375 C 1021.75 1657.71875 1022.511719 1659.449219 1024.03125 1660.808594 C 1025.519531 1662.171875 1029.421875 1663.558594 1035.71875 1664.980469 C 1042.019531 1666.410156 1046.339844 1667.660156 1048.691406 1668.71875 C 1052.101562 1670.289062 1054.609375 1672.28125 1056.238281 1674.691406 C 1057.859375 1677.109375 1058.679688 1679.878906 1058.679688 1683.03125 C 1058.679688 1686.140625 1057.78125 1689.078125 1056 1691.839844 C 1054.210938 1694.589844 1051.648438 1696.738281 1048.308594 1698.269531 C 1044.960938 1699.800781 1041.199219 1700.570312 1037.019531 1700.570312 C 1031.71875 1700.570312 1027.28125 1699.789062 1023.691406 1698.25 C 1020.109375 1696.710938 1017.300781 1694.378906 1015.261719 1691.28125 C 1013.21875 1688.171875 1012.148438 1684.660156 1012.039062 1680.75 "/>
<path fill-rule="nonzero" fill="rgb(95.614624%, 95.310974%, 94.711304%)" fill-opacity="1" d="M 1134.421875 1699.570312 L 1134.421875 1640.988281 L 1142.171875 1640.988281 L 1142.171875 1692.660156 L 1171.019531 1692.660156 L 1171.019531 1699.570312 L 1134.421875 1699.570312 "/>
<path fill-rule="nonzero" fill="rgb(95.614624%, 95.310974%, 94.711304%)" fill-opacity="1" d="M 1251.359375 1671.160156 C 1251.359375 1678.21875 1253.25 1683.78125 1257.050781 1687.839844 C 1260.851562 1691.898438 1265.609375 1693.929688 1271.339844 1693.929688 C 1277.171875 1693.929688 1281.96875 1691.878906 1285.738281 1687.78125 C 1289.511719 1683.679688 1291.398438 1677.859375 1291.398438 1670.320312 C 1291.398438 1665.550781 1290.589844 1661.390625 1288.980469 1657.828125 C 1287.371094 1654.269531 1285.011719 1651.519531 1281.910156 1649.558594 C 1278.800781 1647.601562 1275.320312 1646.621094 1271.460938 1646.621094 C 1265.96875 1646.621094 1261.25 1648.511719 1257.289062 1652.28125 C 1253.328125 1656.050781 1251.359375 1662.339844 1251.359375 1671.160156 Z M 1243.359375 1671.039062 C 1243.359375 1661.308594 1245.96875 1653.699219 1251.199219 1648.199219 C 1256.421875 1642.699219 1263.160156 1639.949219 1271.421875 1639.949219 C 1276.820312 1639.949219 1281.699219 1641.238281 1286.039062 1643.828125 C 1290.378906 1646.410156 1293.691406 1650.011719 1295.96875 1654.628906 C 1298.25 1659.261719 1299.390625 1664.5 1299.390625 1670.359375 C 1299.390625 1676.300781 1298.191406 1681.609375 1295.789062 1686.300781 C 1293.390625 1690.988281 1290 1694.539062 1285.601562 1696.949219 C 1281.210938 1699.359375 1276.460938 1700.570312 1271.378906 1700.570312 C 1265.859375 1700.570312 1260.929688 1699.238281 1256.589844 1696.570312 C 1252.25 1693.910156 1248.960938 1690.269531 1246.71875 1685.660156 C 1244.480469 1681.050781 1243.359375 1676.179688 1243.359375 1671.039062 "/>
<path fill-rule="nonzero" fill="rgb(95.614624%, 95.310974%, 94.711304%)" fill-opacity="1" d="M 1402.261719 1676.589844 L 1402.261719 1669.71875 L 1427.070312 1669.679688 L 1427.070312 1691.421875 C 1423.269531 1694.449219 1419.339844 1696.738281 1415.289062 1698.269531 C 1411.238281 1699.800781 1407.078125 1700.570312 1402.820312 1700.570312 C 1397.070312 1700.570312 1391.839844 1699.339844 1387.140625 1696.871094 C 1382.429688 1694.410156 1378.878906 1690.839844 1376.488281 1686.179688 C 1374.089844 1681.519531 1372.890625 1676.308594 1372.890625 1670.558594 C 1372.890625 1664.859375 1374.078125 1659.539062 1376.46875 1654.589844 C 1378.851562 1649.648438 1382.28125 1645.980469 1386.761719 1643.589844 C 1391.230469 1641.191406 1396.390625 1639.988281 1402.21875 1639.988281 C 1406.460938 1639.988281 1410.28125 1640.679688 1413.710938 1642.050781 C 1417.128906 1643.421875 1419.820312 1645.328125 1421.761719 1647.78125 C 1423.699219 1650.230469 1425.179688 1653.429688 1426.199219 1657.371094 L 1419.199219 1659.289062 C 1418.320312 1656.308594 1417.230469 1653.960938 1415.929688 1652.261719 C 1414.621094 1650.550781 1412.761719 1649.191406 1410.328125 1648.160156 C 1407.910156 1647.140625 1405.21875 1646.621094 1402.261719 1646.621094 C 1398.71875 1646.621094 1395.648438 1647.160156 1393.070312 1648.238281 C 1390.488281 1649.320312 1388.398438 1650.738281 1386.820312 1652.5 C 1385.230469 1654.25 1384 1656.191406 1383.121094 1658.289062 C 1381.628906 1661.910156 1380.878906 1665.839844 1380.878906 1670.078125 C 1380.878906 1675.300781 1381.78125 1679.671875 1383.578125 1683.191406 C 1385.378906 1686.699219 1387.988281 1689.308594 1391.429688 1691.019531 C 1394.871094 1692.71875 1398.519531 1693.578125 1402.378906 1693.578125 C 1405.738281 1693.578125 1409.011719 1692.929688 1412.210938 1691.640625 C 1415.410156 1690.351562 1417.828125 1688.96875 1419.480469 1687.5 L 1419.480469 1676.589844 L 1402.261719 1676.589844 "/>
<path fill-rule="nonzero" fill="rgb(95.614624%, 95.310974%, 94.711304%)" fill-opacity="1" d="M 1514.441406 1675.511719 L 1534.300781 1675.511719 L 1528.191406 1659.289062 C 1526.320312 1654.359375 1524.941406 1650.308594 1524.03125 1647.140625 C 1523.289062 1650.898438 1522.238281 1654.628906 1520.878906 1658.328125 Z M 1497.539062 1699.570312 L 1520.039062 1640.988281 L 1528.390625 1640.988281 L 1552.371094 1699.570312 L 1543.53125 1699.570312 L 1536.699219 1681.828125 L 1512.210938 1681.828125 L 1505.769531 1699.570312 L 1497.539062 1699.570312 "/>
<path fill-rule="nonzero" fill="rgb(95.614624%, 95.310974%, 94.711304%)" fill-opacity="1" d="M 1623.949219 1699.570312 L 1623.949219 1640.988281 L 1631.898438 1640.988281 L 1662.671875 1686.980469 L 1662.671875 1640.988281 L 1670.101562 1640.988281 L 1670.101562 1699.570312 L 1662.148438 1699.570312 L 1631.378906 1653.539062 L 1631.378906 1699.570312 L 1623.949219 1699.570312 "/>
<path fill-rule="nonzero" fill="rgb(95.614624%, 95.310974%, 94.711304%)" fill-opacity="1" d="M 1837.050781 1699.570312 L 1837.050781 1640.988281 L 1844.800781 1640.988281 L 1844.800781 1665.039062 L 1875.25 1665.039062 L 1875.25 1640.988281 L 1883 1640.988281 L 1883 1699.570312 L 1875.25 1699.570312 L 1875.25 1671.960938 L 1844.800781 1671.960938 L 1844.800781 1699.570312 L 1837.050781 1699.570312 "/>
<path fill-rule="nonzero" fill="rgb(95.614624%, 95.310974%, 94.711304%)" fill-opacity="1" d="M 1961.539062 1699.570312 L 1961.539062 1640.988281 L 2003.898438 1640.988281 L 2003.898438 1647.898438 L 1969.289062 1647.898438 L 1969.289062 1665.839844 L 2001.699219 1665.839844 L 2001.699219 1672.71875 L 1969.289062 1672.71875 L 1969.289062 1692.660156 L 2005.25 1692.660156 L 2005.25 1699.570312 L 1961.539062 1699.570312 "/>
<path fill-rule="nonzero" fill="rgb(95.614624%, 95.310974%, 94.711304%)" fill-opacity="1" d="M 2089.308594 1666.839844 L 2105.96875 1666.839844 C 2109.511719 1666.839844 2112.28125 1666.480469 2114.28125 1665.738281 C 2116.28125 1665.011719 2117.800781 1663.839844 2118.839844 1662.230469 C 2119.871094 1660.621094 2120.390625 1658.859375 2120.390625 1656.96875 C 2120.390625 1654.199219 2119.390625 1651.921875 2117.378906 1650.140625 C 2115.371094 1648.351562 2112.191406 1647.460938 2107.851562 1647.460938 L 2089.308594 1647.460938 Z M 2081.550781 1699.570312 L 2081.550781 1640.988281 L 2107.53125 1640.988281 C 2112.75 1640.988281 2116.71875 1641.511719 2119.441406 1642.570312 C 2122.148438 1643.621094 2124.320312 1645.480469 2125.949219 1648.140625 C 2127.570312 1650.808594 2128.390625 1653.75 2128.390625 1656.96875 C 2128.390625 1661.128906 2127.039062 1664.628906 2124.351562 1667.480469 C 2121.660156 1670.328125 2117.5 1672.140625 2111.878906 1672.921875 C 2113.929688 1673.898438 2115.488281 1674.871094 2116.558594 1675.828125 C 2118.820312 1677.910156 2120.96875 1680.511719 2122.988281 1683.628906 L 2133.179688 1699.570312 L 2123.429688 1699.570312 L 2115.679688 1687.378906 C 2113.410156 1683.871094 2111.550781 1681.171875 2110.078125 1679.308594 C 2108.621094 1677.449219 2107.308594 1676.140625 2106.148438 1675.390625 C 2104.988281 1674.648438 2103.808594 1674.128906 2102.609375 1673.828125 C 2101.730469 1673.648438 2100.289062 1673.558594 2098.300781 1673.558594 L 2089.308594 1673.558594 L 2089.308594 1699.570312 L 2081.550781 1699.570312 "/>
<path fill-rule="nonzero" fill="rgb(95.614624%, 95.310974%, 94.711304%)" fill-opacity="1" d="M 2206.160156 1699.570312 L 2206.160156 1640.988281 L 2248.519531 1640.988281 L 2248.519531 1647.898438 L 2213.921875 1647.898438 L 2213.921875 1665.839844 L 2246.320312 1665.839844 L 2246.320312 1672.71875 L 2213.921875 1672.71875 L 2213.921875 1692.660156 L 2249.878906 1692.660156 L 2249.878906 1699.570312 L 2206.160156 1699.570312 "/>
</svg>
